%TF.GenerationSoftware,KiCad,Pcbnew,9.0.2*%
%TF.CreationDate,2025-06-19T09:16:00+05:30*%
%TF.ProjectId,FlashDot,466c6173-6844-46f7-942e-6b696361645f,rev?*%
%TF.SameCoordinates,Original*%
%TF.FileFunction,Legend,Top*%
%TF.FilePolarity,Positive*%
%FSLAX46Y46*%
G04 Gerber Fmt 4.6, Leading zero omitted, Abs format (unit mm)*
G04 Created by KiCad (PCBNEW 9.0.2) date 2025-06-19 09:16:00*
%MOMM*%
%LPD*%
G01*
G04 APERTURE LIST*
%ADD10C,0.150000*%
%ADD11C,0.120000*%
G04 APERTURE END LIST*
D10*
X120214285Y-64931009D02*
X120357142Y-64978628D01*
X120357142Y-64978628D02*
X120404761Y-65026247D01*
X120404761Y-65026247D02*
X120452380Y-65121485D01*
X120452380Y-65121485D02*
X120452380Y-65264342D01*
X120452380Y-65264342D02*
X120404761Y-65359580D01*
X120404761Y-65359580D02*
X120357142Y-65407200D01*
X120357142Y-65407200D02*
X120261904Y-65454819D01*
X120261904Y-65454819D02*
X119880952Y-65454819D01*
X119880952Y-65454819D02*
X119880952Y-64454819D01*
X119880952Y-64454819D02*
X120214285Y-64454819D01*
X120214285Y-64454819D02*
X120309523Y-64502438D01*
X120309523Y-64502438D02*
X120357142Y-64550057D01*
X120357142Y-64550057D02*
X120404761Y-64645295D01*
X120404761Y-64645295D02*
X120404761Y-64740533D01*
X120404761Y-64740533D02*
X120357142Y-64835771D01*
X120357142Y-64835771D02*
X120309523Y-64883390D01*
X120309523Y-64883390D02*
X120214285Y-64931009D01*
X120214285Y-64931009D02*
X119880952Y-64931009D01*
X120738095Y-64454819D02*
X121309523Y-64454819D01*
X121023809Y-65454819D02*
X121023809Y-64454819D01*
X122166666Y-65454819D02*
X121595238Y-65454819D01*
X121880952Y-65454819D02*
X121880952Y-64454819D01*
X121880952Y-64454819D02*
X121785714Y-64597676D01*
X121785714Y-64597676D02*
X121690476Y-64692914D01*
X121690476Y-64692914D02*
X121595238Y-64740533D01*
X129904761Y-87990057D02*
X129809523Y-87942438D01*
X129809523Y-87942438D02*
X129714285Y-87847200D01*
X129714285Y-87847200D02*
X129571428Y-87704342D01*
X129571428Y-87704342D02*
X129476190Y-87656723D01*
X129476190Y-87656723D02*
X129380952Y-87656723D01*
X129428571Y-87894819D02*
X129333333Y-87847200D01*
X129333333Y-87847200D02*
X129238095Y-87751961D01*
X129238095Y-87751961D02*
X129190476Y-87561485D01*
X129190476Y-87561485D02*
X129190476Y-87228152D01*
X129190476Y-87228152D02*
X129238095Y-87037676D01*
X129238095Y-87037676D02*
X129333333Y-86942438D01*
X129333333Y-86942438D02*
X129428571Y-86894819D01*
X129428571Y-86894819D02*
X129619047Y-86894819D01*
X129619047Y-86894819D02*
X129714285Y-86942438D01*
X129714285Y-86942438D02*
X129809523Y-87037676D01*
X129809523Y-87037676D02*
X129857142Y-87228152D01*
X129857142Y-87228152D02*
X129857142Y-87561485D01*
X129857142Y-87561485D02*
X129809523Y-87751961D01*
X129809523Y-87751961D02*
X129714285Y-87847200D01*
X129714285Y-87847200D02*
X129619047Y-87894819D01*
X129619047Y-87894819D02*
X129428571Y-87894819D01*
X130238095Y-86990057D02*
X130285714Y-86942438D01*
X130285714Y-86942438D02*
X130380952Y-86894819D01*
X130380952Y-86894819D02*
X130619047Y-86894819D01*
X130619047Y-86894819D02*
X130714285Y-86942438D01*
X130714285Y-86942438D02*
X130761904Y-86990057D01*
X130761904Y-86990057D02*
X130809523Y-87085295D01*
X130809523Y-87085295D02*
X130809523Y-87180533D01*
X130809523Y-87180533D02*
X130761904Y-87323390D01*
X130761904Y-87323390D02*
X130190476Y-87894819D01*
X130190476Y-87894819D02*
X130809523Y-87894819D01*
X139378221Y-73109580D02*
X139330602Y-73157200D01*
X139330602Y-73157200D02*
X139187745Y-73204819D01*
X139187745Y-73204819D02*
X139092507Y-73204819D01*
X139092507Y-73204819D02*
X138949650Y-73157200D01*
X138949650Y-73157200D02*
X138854412Y-73061961D01*
X138854412Y-73061961D02*
X138806793Y-72966723D01*
X138806793Y-72966723D02*
X138759174Y-72776247D01*
X138759174Y-72776247D02*
X138759174Y-72633390D01*
X138759174Y-72633390D02*
X138806793Y-72442914D01*
X138806793Y-72442914D02*
X138854412Y-72347676D01*
X138854412Y-72347676D02*
X138949650Y-72252438D01*
X138949650Y-72252438D02*
X139092507Y-72204819D01*
X139092507Y-72204819D02*
X139187745Y-72204819D01*
X139187745Y-72204819D02*
X139330602Y-72252438D01*
X139330602Y-72252438D02*
X139378221Y-72300057D01*
X140330602Y-73204819D02*
X139759174Y-73204819D01*
X140044888Y-73204819D02*
X140044888Y-72204819D01*
X140044888Y-72204819D02*
X139949650Y-72347676D01*
X139949650Y-72347676D02*
X139854412Y-72442914D01*
X139854412Y-72442914D02*
X139759174Y-72490533D01*
X142824819Y-90356666D02*
X142348628Y-90689999D01*
X142824819Y-90928094D02*
X141824819Y-90928094D01*
X141824819Y-90928094D02*
X141824819Y-90547142D01*
X141824819Y-90547142D02*
X141872438Y-90451904D01*
X141872438Y-90451904D02*
X141920057Y-90404285D01*
X141920057Y-90404285D02*
X142015295Y-90356666D01*
X142015295Y-90356666D02*
X142158152Y-90356666D01*
X142158152Y-90356666D02*
X142253390Y-90404285D01*
X142253390Y-90404285D02*
X142301009Y-90451904D01*
X142301009Y-90451904D02*
X142348628Y-90547142D01*
X142348628Y-90547142D02*
X142348628Y-90928094D01*
X141920057Y-89975713D02*
X141872438Y-89928094D01*
X141872438Y-89928094D02*
X141824819Y-89832856D01*
X141824819Y-89832856D02*
X141824819Y-89594761D01*
X141824819Y-89594761D02*
X141872438Y-89499523D01*
X141872438Y-89499523D02*
X141920057Y-89451904D01*
X141920057Y-89451904D02*
X142015295Y-89404285D01*
X142015295Y-89404285D02*
X142110533Y-89404285D01*
X142110533Y-89404285D02*
X142253390Y-89451904D01*
X142253390Y-89451904D02*
X142824819Y-90023332D01*
X142824819Y-90023332D02*
X142824819Y-89404285D01*
X117533333Y-96154819D02*
X117200000Y-95678628D01*
X116961905Y-96154819D02*
X116961905Y-95154819D01*
X116961905Y-95154819D02*
X117342857Y-95154819D01*
X117342857Y-95154819D02*
X117438095Y-95202438D01*
X117438095Y-95202438D02*
X117485714Y-95250057D01*
X117485714Y-95250057D02*
X117533333Y-95345295D01*
X117533333Y-95345295D02*
X117533333Y-95488152D01*
X117533333Y-95488152D02*
X117485714Y-95583390D01*
X117485714Y-95583390D02*
X117438095Y-95631009D01*
X117438095Y-95631009D02*
X117342857Y-95678628D01*
X117342857Y-95678628D02*
X116961905Y-95678628D01*
X117866667Y-95154819D02*
X118485714Y-95154819D01*
X118485714Y-95154819D02*
X118152381Y-95535771D01*
X118152381Y-95535771D02*
X118295238Y-95535771D01*
X118295238Y-95535771D02*
X118390476Y-95583390D01*
X118390476Y-95583390D02*
X118438095Y-95631009D01*
X118438095Y-95631009D02*
X118485714Y-95726247D01*
X118485714Y-95726247D02*
X118485714Y-95964342D01*
X118485714Y-95964342D02*
X118438095Y-96059580D01*
X118438095Y-96059580D02*
X118390476Y-96107200D01*
X118390476Y-96107200D02*
X118295238Y-96154819D01*
X118295238Y-96154819D02*
X118009524Y-96154819D01*
X118009524Y-96154819D02*
X117914286Y-96107200D01*
X117914286Y-96107200D02*
X117866667Y-96059580D01*
X136333333Y-81084819D02*
X136000000Y-80608628D01*
X135761905Y-81084819D02*
X135761905Y-80084819D01*
X135761905Y-80084819D02*
X136142857Y-80084819D01*
X136142857Y-80084819D02*
X136238095Y-80132438D01*
X136238095Y-80132438D02*
X136285714Y-80180057D01*
X136285714Y-80180057D02*
X136333333Y-80275295D01*
X136333333Y-80275295D02*
X136333333Y-80418152D01*
X136333333Y-80418152D02*
X136285714Y-80513390D01*
X136285714Y-80513390D02*
X136238095Y-80561009D01*
X136238095Y-80561009D02*
X136142857Y-80608628D01*
X136142857Y-80608628D02*
X135761905Y-80608628D01*
X137285714Y-81084819D02*
X136714286Y-81084819D01*
X137000000Y-81084819D02*
X137000000Y-80084819D01*
X137000000Y-80084819D02*
X136904762Y-80227676D01*
X136904762Y-80227676D02*
X136809524Y-80322914D01*
X136809524Y-80322914D02*
X136714286Y-80370533D01*
X134256905Y-65494819D02*
X134256905Y-64494819D01*
X134256905Y-64494819D02*
X134495000Y-64494819D01*
X134495000Y-64494819D02*
X134637857Y-64542438D01*
X134637857Y-64542438D02*
X134733095Y-64637676D01*
X134733095Y-64637676D02*
X134780714Y-64732914D01*
X134780714Y-64732914D02*
X134828333Y-64923390D01*
X134828333Y-64923390D02*
X134828333Y-65066247D01*
X134828333Y-65066247D02*
X134780714Y-65256723D01*
X134780714Y-65256723D02*
X134733095Y-65351961D01*
X134733095Y-65351961D02*
X134637857Y-65447200D01*
X134637857Y-65447200D02*
X134495000Y-65494819D01*
X134495000Y-65494819D02*
X134256905Y-65494819D01*
X135780714Y-65494819D02*
X135209286Y-65494819D01*
X135495000Y-65494819D02*
X135495000Y-64494819D01*
X135495000Y-64494819D02*
X135399762Y-64637676D01*
X135399762Y-64637676D02*
X135304524Y-64732914D01*
X135304524Y-64732914D02*
X135209286Y-64780533D01*
D11*
%TO.C,BT1*%
X114250000Y-69550000D02*
X116850000Y-66950000D01*
X114250000Y-71000000D02*
X114250000Y-69550000D01*
X114250000Y-75000000D02*
X114250000Y-77100000D01*
X116850000Y-66150000D02*
X125150000Y-66150000D01*
X116850000Y-66950000D02*
X116850000Y-66150000D01*
X125150000Y-66150000D02*
X125150000Y-66950000D01*
X125150000Y-66950000D02*
X127750000Y-69550000D01*
X127750000Y-69550000D02*
X127750000Y-71000000D01*
X127750000Y-75000000D02*
X127750000Y-77100000D01*
X115700000Y-78600000D02*
G75*
G02*
X114250000Y-77050000I49999J1499999D01*
G01*
X116500000Y-78200000D02*
G75*
G02*
X115585385Y-78584160I-790000J600001D01*
G01*
X126414615Y-78584160D02*
G75*
G02*
X125500000Y-78200000I-124615J984160D01*
G01*
X127750000Y-77050000D02*
G75*
G02*
X126300000Y-78600000I-1500000J-50000D01*
G01*
%TO.C,Q2*%
X128200000Y-92850000D02*
X131800000Y-92850000D01*
X128161522Y-92838478D02*
G75*
G02*
X130000000Y-88399999I1838478J1838478D01*
G01*
X130000000Y-88400000D02*
G75*
G02*
X131838478Y-92838478I0J-2600000D01*
G01*
%TO.C,C1*%
X136740113Y-75025000D02*
X137240113Y-75025000D01*
X136990113Y-74775000D02*
X136990113Y-75275000D01*
X139544888Y-73920000D02*
X139544888Y-75460000D01*
X139544888Y-77540000D02*
X139544888Y-79080000D01*
X139584888Y-73920000D02*
X139584888Y-75460000D01*
X139584888Y-77540000D02*
X139584888Y-79080000D01*
X139624888Y-73921000D02*
X139624888Y-75460000D01*
X139624888Y-77540000D02*
X139624888Y-79079000D01*
X139664888Y-73923000D02*
X139664888Y-75460000D01*
X139664888Y-77540000D02*
X139664888Y-79077000D01*
X139704888Y-73925000D02*
X139704888Y-75460000D01*
X139704888Y-77540000D02*
X139704888Y-79075000D01*
X139744888Y-73928000D02*
X139744888Y-75460000D01*
X139744888Y-77540000D02*
X139744888Y-79072000D01*
X139784888Y-73931000D02*
X139784888Y-75460000D01*
X139784888Y-77540000D02*
X139784888Y-79069000D01*
X139824888Y-73935000D02*
X139824888Y-75460000D01*
X139824888Y-77540000D02*
X139824888Y-79065000D01*
X139864888Y-73940000D02*
X139864888Y-75460000D01*
X139864888Y-77540000D02*
X139864888Y-79060000D01*
X139904888Y-73945000D02*
X139904888Y-75460000D01*
X139904888Y-77540000D02*
X139904888Y-79055000D01*
X139944888Y-73951000D02*
X139944888Y-75460000D01*
X139944888Y-77540000D02*
X139944888Y-79049000D01*
X139984888Y-73957000D02*
X139984888Y-75460000D01*
X139984888Y-77540000D02*
X139984888Y-79043000D01*
X140024888Y-73964000D02*
X140024888Y-75460000D01*
X140024888Y-77540000D02*
X140024888Y-79036000D01*
X140064888Y-73972000D02*
X140064888Y-75460000D01*
X140064888Y-77540000D02*
X140064888Y-79028000D01*
X140104888Y-73981000D02*
X140104888Y-75460000D01*
X140104888Y-77540000D02*
X140104888Y-79019000D01*
X140144888Y-73990000D02*
X140144888Y-75460000D01*
X140144888Y-77540000D02*
X140144888Y-79010000D01*
X140184888Y-73999000D02*
X140184888Y-75460000D01*
X140184888Y-77540000D02*
X140184888Y-79001000D01*
X140224888Y-74010000D02*
X140224888Y-75460000D01*
X140224888Y-77540000D02*
X140224888Y-78990000D01*
X140264888Y-74021000D02*
X140264888Y-75460000D01*
X140264888Y-77540000D02*
X140264888Y-78979000D01*
X140304888Y-74033000D02*
X140304888Y-75460000D01*
X140304888Y-77540000D02*
X140304888Y-78967000D01*
X140344888Y-74045000D02*
X140344888Y-75460000D01*
X140344888Y-77540000D02*
X140344888Y-78955000D01*
X140384888Y-74058000D02*
X140384888Y-75460000D01*
X140384888Y-77540000D02*
X140384888Y-78942000D01*
X140424888Y-74072000D02*
X140424888Y-75460000D01*
X140424888Y-77540000D02*
X140424888Y-78928000D01*
X140464888Y-74087000D02*
X140464888Y-75460000D01*
X140464888Y-77540000D02*
X140464888Y-78913000D01*
X140504888Y-74102000D02*
X140504888Y-75460000D01*
X140504888Y-77540000D02*
X140504888Y-78898000D01*
X140544888Y-74118000D02*
X140544888Y-75460000D01*
X140544888Y-77540000D02*
X140544888Y-78882000D01*
X140584888Y-74135000D02*
X140584888Y-75460000D01*
X140584888Y-77540000D02*
X140584888Y-78865000D01*
X140624888Y-74153000D02*
X140624888Y-75460000D01*
X140624888Y-77540000D02*
X140624888Y-78847000D01*
X140664888Y-74171000D02*
X140664888Y-75460000D01*
X140664888Y-77540000D02*
X140664888Y-78829000D01*
X140704888Y-74191000D02*
X140704888Y-75460000D01*
X140704888Y-77540000D02*
X140704888Y-78809000D01*
X140744888Y-74211000D02*
X140744888Y-75460000D01*
X140744888Y-77540000D02*
X140744888Y-78789000D01*
X140784888Y-74232000D02*
X140784888Y-75460000D01*
X140784888Y-77540000D02*
X140784888Y-78768000D01*
X140824888Y-74254000D02*
X140824888Y-75460000D01*
X140824888Y-77540000D02*
X140824888Y-78746000D01*
X140864888Y-74277000D02*
X140864888Y-75460000D01*
X140864888Y-77540000D02*
X140864888Y-78723000D01*
X140904888Y-74301000D02*
X140904888Y-75460000D01*
X140904888Y-77540000D02*
X140904888Y-78699000D01*
X140944888Y-74325000D02*
X140944888Y-75460000D01*
X140944888Y-77540000D02*
X140944888Y-78675000D01*
X140984888Y-74351000D02*
X140984888Y-75460000D01*
X140984888Y-77540000D02*
X140984888Y-78649000D01*
X141024888Y-74378000D02*
X141024888Y-75460000D01*
X141024888Y-77540000D02*
X141024888Y-78622000D01*
X141064888Y-74406000D02*
X141064888Y-75460000D01*
X141064888Y-77540000D02*
X141064888Y-78594000D01*
X141104888Y-74435000D02*
X141104888Y-75460000D01*
X141104888Y-77540000D02*
X141104888Y-78565000D01*
X141144888Y-74465000D02*
X141144888Y-75460000D01*
X141144888Y-77540000D02*
X141144888Y-78535000D01*
X141184888Y-74497000D02*
X141184888Y-75460000D01*
X141184888Y-77540000D02*
X141184888Y-78503000D01*
X141224888Y-74530000D02*
X141224888Y-75460000D01*
X141224888Y-77540000D02*
X141224888Y-78470000D01*
X141264888Y-74564000D02*
X141264888Y-75460000D01*
X141264888Y-77540000D02*
X141264888Y-78436000D01*
X141304888Y-74599000D02*
X141304888Y-75460000D01*
X141304888Y-77540000D02*
X141304888Y-78401000D01*
X141344888Y-74636000D02*
X141344888Y-75460000D01*
X141344888Y-77540000D02*
X141344888Y-78364000D01*
X141384888Y-74675000D02*
X141384888Y-75460000D01*
X141384888Y-77540000D02*
X141384888Y-78325000D01*
X141424888Y-74715000D02*
X141424888Y-75460000D01*
X141424888Y-77540000D02*
X141424888Y-78285000D01*
X141464888Y-74757000D02*
X141464888Y-75460000D01*
X141464888Y-77540000D02*
X141464888Y-78243000D01*
X141504888Y-74801000D02*
X141504888Y-75460000D01*
X141504888Y-77540000D02*
X141504888Y-78199000D01*
X141544888Y-74848000D02*
X141544888Y-75460000D01*
X141544888Y-77540000D02*
X141544888Y-78152000D01*
X141584888Y-74896000D02*
X141584888Y-78104000D01*
X141624888Y-74947000D02*
X141624888Y-78053000D01*
X141664888Y-75001000D02*
X141664888Y-77999000D01*
X141704888Y-75057000D02*
X141704888Y-77943000D01*
X141744888Y-75117000D02*
X141744888Y-77883000D01*
X141784888Y-75181000D02*
X141784888Y-77819000D01*
X141824888Y-75249000D02*
X141824888Y-77751000D01*
X141864888Y-75323000D02*
X141864888Y-77677000D01*
X141904888Y-75402000D02*
X141904888Y-77598000D01*
X141944888Y-75489000D02*
X141944888Y-77511000D01*
X141984888Y-75586000D02*
X141984888Y-77414000D01*
X142024888Y-75695000D02*
X142024888Y-77305000D01*
X142064888Y-75823000D02*
X142064888Y-77177000D01*
X142104888Y-75983000D02*
X142104888Y-77017000D01*
X142144888Y-76217000D02*
X142144888Y-76783000D01*
X142164888Y-76500000D02*
G75*
G02*
X136924888Y-76500000I-2620000J0D01*
G01*
X136924888Y-76500000D02*
G75*
G02*
X142164888Y-76500000I2620000J0D01*
G01*
%TO.C,R2*%
X138630000Y-86920000D02*
X138630000Y-93460000D01*
X138630000Y-93460000D02*
X138960000Y-93460000D01*
X138960000Y-86920000D02*
X138630000Y-86920000D01*
X141040000Y-86920000D02*
X141370000Y-86920000D01*
X141370000Y-86920000D02*
X141370000Y-93460000D01*
X141370000Y-93460000D02*
X141040000Y-93460000D01*
%TO.C,R3*%
X120700000Y-86100000D02*
X114700000Y-86100000D01*
X120700000Y-94900000D02*
X114700000Y-94900000D01*
X114700000Y-94900000D02*
G75*
G02*
X114667350Y-86122440I3000000J4400000D01*
G01*
X120700000Y-86100000D02*
G75*
G02*
X120732650Y-94877560I-3000000J-4400000D01*
G01*
%TO.C,R1*%
X133230000Y-81630000D02*
X139770000Y-81630000D01*
X133230000Y-81960000D02*
X133230000Y-81630000D01*
X133230000Y-84040000D02*
X133230000Y-84370000D01*
X133230000Y-84370000D02*
X139770000Y-84370000D01*
X139770000Y-81630000D02*
X139770000Y-81960000D01*
X139770000Y-84370000D02*
X139770000Y-84040000D01*
%TO.C,D1*%
X132435000Y-67455000D02*
X132435000Y-70545000D01*
X132435000Y-67455170D02*
G75*
G02*
X137985000Y-69000000I2560000J-1544830D01*
G01*
X137985000Y-69000000D02*
G75*
G02*
X132435000Y-70544830I-2990000J0D01*
G01*
X137495000Y-69000000D02*
G75*
G02*
X132495000Y-69000000I-2500000J0D01*
G01*
X132495000Y-69000000D02*
G75*
G02*
X137495000Y-69000000I2500000J0D01*
G01*
%TD*%
M02*
